<?xml version="1.0" encoding="utf-8"?>
<svg version="1.0" width="300.000000pt" height="200.000000pt" viewBox="0 50 292.029 105.184" preserveAspectRatio="xMidYMid meet" xmlns="http://www.w3.org/2000/svg">
    <g transform="matrix(0.1, 0, 0, -0.1, 0.895697, 400.126373)" fill="#000000" stroke="none">
        <path d="M 1714.731 3877.462 C 1672.731 3873.462 1631.731 3864.462 1623.731 3858.462 C 1615.731 3851.462 1606.731 3823.462 1602.731 3796.462 C 1597.731 3757.462 1592.731 3747.462 1580.731 3751.462 C 1481.731 3790.462 1305.731 3743.462 1210.731 3654.462 L 1178.731 3624.462 L 1126.731 3651.462 C 1016.731 3705.462 942.731 3674.462 886.731 3549.462 C 825.731 3415.462 863.731 3277.462 959.731 3277.462 C 1003.731 3277.462 1042.731 3299.462 1061.731 3335.462 C 1073.731 3357.462 1074.731 3353.462 1072.731 3292.462 C 1071.731 3236.462 1067.731 3221.462 1047.731 3200.462 C 1008.731 3159.462 921.731 3106.462 766.731 3028.462 C 685.731 2988.462 600.731 2939.462 576.731 2919.462 C 515.731 2869.462 442.731 2782.462 399.731 2707.462 C 378.731 2672.462 357.731 2642.462 350.731 2640.462 C 326.731 2632.462 269.731 2702.462 236.731 2781.462 C 202.731 2860.462 162.731 2907.462 127.731 2907.462 C 117.731 2907.462 95.731 2896.462 80.731 2883.462 C 55.731 2861.462 52.731 2852.462 52.731 2800.462 C 53.731 2688.462 129.731 2601.462 281.731 2539.462 L 370.731 2502.462 L 400.731 2418.462 C 426.731 2346.462 439.731 2325.462 491.731 2273.462 C 603.731 2162.462 718.731 2119.462 989.731 2086.462 C 1103.731 2073.462 1200.731 2081.462 1314.731 2113.462 C 1377.731 2130.462 1408.731 2167.462 1388.731 2198.462 C 1379.731 2214.462 1379.731 2221.462 1392.731 2234.462 C 1401.731 2242.462 1407.731 2261.462 1405.731 2276.462 C 1403.731 2296.462 1395.731 2303.462 1372.731 2307.462 C 1348.731 2311.462 1342.731 2317.462 1342.731 2338.462 L 1341.731 2363.462 L 1462.731 2335.462 C 1528.731 2320.462 1636.731 2296.462 1702.731 2282.462 C 1768.731 2268.462 1863.731 2248.462 1912.731 2236.462 C 1962.731 2225.462 2013.731 2214.462 2027.731 2211.462 C 2041.731 2208.462 2076.731 2200.462 2104.731 2191.462 C 2172.731 2172.462 2172.731 2172.462 2169.731 2210.462 C 2167.731 2233.462 2177.731 2257.462 2204.731 2298.462 C 2225.731 2329.462 2261.731 2383.462 2285.731 2418.462 L 2328.731 2482.462 L 2326.731 2442.462 C 2324.731 2409.462 2310.731 2384.462 2250.731 2303.462 C 2209.731 2249.462 2177.731 2203.462 2179.731 2202.462 C 2181.731 2200.462 2217.731 2244.462 2260.731 2299.462 C 2331.731 2393.462 2337.731 2404.462 2337.731 2448.462 L 2337.731 2496.462 L 2280.731 2507.462 C 2123.731 2537.462 2031.731 2561.462 2016.731 2573.462 C 2008.731 2581.462 1995.731 2587.462 1989.731 2587.462 C 1982.731 2587.462 1977.731 2594.462 1977.731 2603.462 C 1977.731 2618.462 1987.731 2619.462 2065.731 2614.462 C 2264.731 2599.462 2285.731 2599.462 2157.731 2613.462 C 2083.731 2621.462 1999.731 2630.462 1971.731 2633.462 C 1924.731 2638.462 1917.731 2642.462 1867.731 2699.462 L 1813.731 2760.462 L 1913.731 2754.462 C 2010.731 2749.462 2010.731 2749.462 1937.731 2758.462 C 1803.731 2775.462 1801.731 2776.462 1789.731 2803.462 C 1774.731 2835.462 1774.731 2835.462 1795.731 2840.462 C 1808.731 2844.462 1807.731 2845.462 1790.731 2846.462 C 1769.731 2847.462 1750.731 2864.462 1760.731 2873.462 C 1765.731 2878.462 2137.731 2845.462 2292.731 2827.462 C 2336.731 2821.462 2375.731 2817.462 2379.731 2817.462 C 2384.731 2817.462 2387.731 2768.462 2387.731 2708.462 L 2387.731 2598.462 L 2340.731 2594.462 L 2292.731 2591.462 L 2340.731 2589.462 C 2384.731 2587.462 2390.731 2590.462 2424.731 2630.462 C 2445.731 2653.462 2506.731 2718.462 2560.731 2773.462 C 2646.731 2861.462 2657.731 2877.462 2652.731 2900.462 C 2640.731 2947.462 2654.731 2967.462 2698.731 2967.462 C 2813.731 2967.462 2879.731 2848.462 2808.731 2770.462 C 2780.731 2739.462 2700.731 2707.462 2649.731 2707.462 C 2635.731 2707.462 2607.731 2702.462 2586.731 2695.462 C 2535.731 2680.462 2531.731 2646.462 2580.731 2627.462 C 2682.731 2586.462 2680.731 2507.462 2576.731 2507.462 C 2526.731 2507.462 2515.731 2501.462 2498.731 2470.462 C 2490.731 2454.462 2477.731 2447.462 2456.731 2447.462 C 2412.731 2447.462 2389.731 2432.462 2356.731 2379.462 C 2308.731 2304.462 2319.731 2252.462 2388.731 2216.462 C 2436.731 2192.462 2473.731 2197.462 2529.731 2233.462 C 2599.731 2278.462 2603.731 2375.462 2536.731 2414.462 C 2480.731 2447.462 2508.731 2495.462 2584.731 2495.462 C 2623.731 2495.462 2636.731 2500.462 2654.731 2521.462 C 2688.731 2560.462 2663.731 2607.462 2595.731 2634.462 C 2555.731 2650.462 2545.731 2672.462 2575.731 2681.462 C 2584.731 2683.462 2624.731 2691.462 2662.731 2697.462 C 2782.731 2716.462 2853.731 2772.462 2851.731 2846.462 C 2849.731 2922.462 2785.731 2977.462 2698.731 2977.462 L 2645.731 2977.462 L 2649.731 3015.462 C 2652.731 3048.462 2649.731 3052.462 2627.731 3055.462 C 2583.731 3060.462 2394.731 3097.462 2389.731 3102.462 C 2387.731 3104.462 2406.731 3126.462 2431.731 3150.462 C 2457.731 3176.462 2477.731 3204.462 2477.731 3217.462 C 2477.731 3228.462 2489.731 3249.462 2504.731 3263.462 C 2529.731 3286.462 2531.731 3295.462 2544.731 3444.462 L 2557.731 3601.462 L 2532.731 3627.462 C 2511.731 3649.462 2507.731 3663.462 2507.731 3714.462 C 2507.731 3767.462 2503.731 3779.462 2478.731 3806.462 C 2450.731 3836.462 2441.731 3838.462 2305.731 3858.462 C 2147.731 3881.462 1843.731 3891.462 1714.731 3877.462 Z M 2299.731 3848.462 C 2369.731 3838.462 2430.731 3826.462 2435.731 3823.462 C 2446.731 3817.462 2443.731 3758.462 2420.731 3517.462 C 2412.731 3426.462 2402.731 3302.462 2398.731 3240.462 C 2395.731 3179.462 2389.731 3126.462 2385.731 3122.462 C 2370.731 3107.462 2295.731 3097.462 2186.731 3097.462 C 2058.731 3097.462 1777.731 3123.462 1763.731 3137.462 C 1751.731 3149.462 1818.731 3254.462 1841.731 3261.462 C 1859.731 3266.462 1934.731 3264.462 2187.731 3252.462 C 2245.731 3249.462 2297.731 3251.462 2303.731 3255.462 C 2316.731 3263.462 2324.731 3353.462 2333.731 3588.462 C 2341.731 3776.462 2348.731 3758.462 2257.731 3773.462 C 2194.731 3782.462 1958.731 3793.462 1963.731 3786.462 C 1965.731 3783.462 2028.731 3777.462 2104.731 3774.462 C 2224.731 3768.462 2311.731 3757.462 2322.731 3745.462 C 2324.731 3743.462 2322.731 3665.462 2319.731 3572.462 L 2312.731 3402.462 L 2157.731 3407.462 C 2072.731 3410.462 1958.731 3412.462 1905.731 3412.462 L 1809.731 3412.462 L 1797.731 3450.462 C 1791.731 3472.462 1787.731 3490.462 1789.731 3492.462 C 1791.731 3493.462 1802.731 3500.462 1815.731 3506.462 C 1835.731 3516.462 1842.731 3515.462 1868.731 3493.462 C 1909.731 3458.462 1974.731 3457.462 2014.731 3491.462 L 2043.731 3515.462 L 2097.731 3492.462 C 2149.731 3471.462 2319.731 3450.462 2300.731 3467.462 C 2296.731 3472.462 2261.731 3477.462 2222.731 3479.462 C 2179.731 3482.462 2132.731 3492.462 2100.731 3506.462 C 2053.731 3527.462 2048.731 3532.462 2053.731 3553.462 C 2066.731 3603.462 1986.731 3696.462 1905.731 3726.462 C 1874.731 3738.462 1801.731 3727.462 1741.731 3702.462 C 1698.731 3684.462 1688.731 3689.462 1690.731 3725.462 C 1693.731 3764.462 1728.731 3776.462 1840.731 3778.462 C 1894.731 3779.462 1939.731 3783.462 1942.731 3788.462 C 1948.731 3797.462 1760.731 3789.462 1712.731 3778.462 C 1688.731 3772.462 1681.731 3765.462 1679.731 3739.462 L 1676.731 3708.462 L 1641.731 3725.462 C 1608.731 3741.462 1607.731 3744.462 1613.731 3782.462 C 1624.731 3849.462 1630.731 3855.462 1704.731 3862.462 C 1742.731 3866.462 1777.731 3870.462 1782.731 3873.462 C 1808.731 3884.462 2183.731 3866.462 2299.731 3848.462 Z M 2487.731 3617.462 C 2460.731 3185.462 2461.731 3194.462 2430.731 3165.462 L 2405.731 3142.462 L 2411.731 3242.462 C 2415.731 3297.462 2427.731 3437.462 2437.731 3552.462 C 2448.731 3668.462 2457.731 3771.462 2457.731 3782.462 C 2457.731 3801.462 2457.731 3801.462 2476.731 3782.462 C 2495.731 3763.462 2495.731 3754.462 2487.731 3617.462 Z M 1609.731 3724.462 C 1639.731 3711.462 1670.731 3692.462 1680.731 3683.462 C 1696.731 3666.462 1699.731 3666.462 1740.731 3686.462 C 1831.731 3730.462 1932.731 3721.462 1986.731 3663.462 L 2008.731 3640.462 L 1970.731 3634.462 C 1931.731 3627.462 1867.731 3579.462 1867.731 3556.462 C 1867.731 3549.462 1854.731 3555.462 1839.731 3570.462 C 1823.731 3586.462 1800.731 3597.462 1784.731 3597.462 C 1743.731 3597.462 1739.731 3559.462 1771.731 3468.462 C 1812.731 3350.462 1806.731 3292.462 1746.731 3202.462 C 1682.731 3106.462 1671.731 3023.462 1708.731 2915.462 C 1746.731 2801.462 1887.731 2617.462 1936.731 2617.462 C 1956.731 2617.462 1958.731 2613.462 1953.731 2591.462 C 1947.731 2569.462 1949.731 2566.462 1969.731 2569.462 C 2002.731 2573.462 1998.731 2545.462 1964.731 2529.462 C 1940.731 2517.462 1937.731 2511.462 1942.731 2487.462 C 1949.731 2454.462 1928.731 2437.462 1877.731 2437.462 C 1827.731 2437.462 1788.731 2463.462 1675.731 2574.462 C 1553.731 2693.462 1549.731 2694.462 1483.731 2624.462 C 1357.731 2488.462 1316.731 2449.462 1248.731 2405.462 C 1207.731 2379.462 1164.731 2354.462 1153.731 2351.462 C 1124.731 2344.462 921.731 2439.462 880.731 2480.462 C 862.731 2497.462 847.731 2506.462 847.731 2501.462 C 847.731 2462.462 1071.731 2325.462 1155.731 2311.462 C 1186.731 2306.462 1208.731 2310.462 1252.731 2331.462 C 1297.731 2351.462 1313.731 2355.462 1324.731 2346.462 C 1335.731 2336.462 1335.731 2332.462 1322.731 2317.462 C 1299.731 2292.462 1304.731 2284.462 1340.731 2289.462 C 1402.731 2299.462 1415.731 2277.462 1371.731 2236.462 C 1348.731 2215.462 1347.731 2211.462 1363.731 2200.462 C 1411.731 2165.462 1320.731 2130.462 1152.731 2121.462 C 1034.731 2114.462 809.731 2137.462 735.731 2163.462 C 656.731 2191.462 524.731 2262.462 488.731 2297.462 C 444.731 2340.462 406.731 2416.462 399.731 2475.462 L 394.731 2518.462 L 303.731 2561.462 C 212.731 2604.462 162.731 2636.462 183.731 2637.462 C 189.731 2637.462 210.731 2648.462 229.731 2661.462 L 264.731 2684.462 L 287.731 2660.462 C 313.731 2633.462 354.731 2614.462 371.731 2620.462 C 377.731 2623.462 400.731 2658.462 422.731 2698.462 C 447.731 2743.462 491.731 2800.462 537.731 2847.462 C 607.731 2918.462 624.731 2929.462 782.731 3007.462 C 964.731 3096.462 1020.731 3130.462 1065.731 3178.462 L 1094.731 3209.462 L 1145.731 3152.462 C 1174.731 3121.462 1197.731 3098.462 1197.731 3102.462 C 1197.731 3106.462 1174.731 3139.462 1146.731 3175.462 C 1090.731 3249.462 1091.731 3245.462 1113.731 3414.462 C 1116.731 3443.462 1117.731 3474.462 1113.731 3483.462 C 1103.731 3508.462 1079.731 3483.462 1067.731 3433.462 C 1049.731 3363.462 1029.731 3329.462 996.731 3311.462 C 971.731 3298.462 960.731 3297.462 942.731 3307.462 C 910.731 3324.462 886.731 3371.462 880.731 3431.462 C 875.731 3475.462 879.731 3494.462 900.731 3538.462 C 929.731 3599.462 940.731 3613.462 981.731 3645.462 C 1017.731 3672.462 1073.731 3667.462 1131.731 3630.462 L 1169.731 3605.462 L 1201.731 3636.462 L 1232.731 3666.462 L 1254.731 3632.462 C 1302.731 3559.462 1406.731 3564.462 1484.731 3642.462 C 1508.731 3666.462 1530.731 3698.462 1533.731 3716.462 C 1537.731 3733.462 1543.731 3747.462 1548.731 3747.462 C 1553.731 3747.462 1580.731 3736.462 1609.731 3724.462 Z M 2537.731 3538.462 C 2537.731 3417.462 2518.731 3294.462 2495.731 3272.462 L 2475.731 3252.462 L 2481.731 3332.462 C 2484.731 3376.462 2490.731 3463.462 2493.731 3525.462 C 2500.731 3633.462 2501.731 3637.462 2519.731 3621.462 C 2533.731 3608.462 2537.731 3589.462 2537.731 3538.462 Z M 1821.731 3549.462 C 1836.731 3531.462 1836.731 3530.462 1811.731 3518.462 C 1780.731 3504.462 1781.731 3504.462 1772.731 3540.462 C 1766.731 3562.462 1768.731 3567.462 1784.731 3567.462 C 1795.731 3567.462 1811.731 3559.462 1821.731 3549.462 Z M 2165.731 3390.462 L 2308.731 3384.462 L 2305.731 3348.462 L 2302.731 3312.462 L 2122.731 3314.462 C 2023.731 3315.462 1915.731 3319.462 1882.731 3322.462 C 1821.731 3328.462 1821.731 3328.462 1819.731 3362.462 C 1817.731 3392.462 1820.731 3396.462 1844.731 3400.462 C 1860.731 3403.462 1906.731 3403.462 1947.731 3401.462 C 1988.731 3398.462 2086.731 3394.462 2165.731 3390.462 Z M 1767.731 3113.462 C 1767.731 3111.462 1760.731 3107.462 1752.731 3103.462 C 1744.731 3100.462 1737.731 3102.462 1737.731 3107.462 C 1737.731 3113.462 1744.731 3117.462 1752.731 3117.462 C 1760.731 3117.462 1767.731 3115.462 1767.731 3113.462 Z M 1839.731 3093.462 C 1843.731 3087.462 1826.731 3072.462 1799.731 3057.462 C 1773.731 3043.462 1752.731 3025.462 1752.731 3017.462 C 1752.731 2992.462 1861.731 2965.462 1982.731 2960.462 C 2103.731 2955.462 2260.731 2976.462 2285.731 3001.462 C 2297.731 3013.462 2294.731 3018.462 2261.731 3041.462 C 2240.731 3055.462 2216.731 3067.462 2207.731 3068.462 C 2173.731 3070.462 2246.731 3085.462 2297.731 3086.462 C 2352.731 3087.462 2591.731 3051.462 2615.731 3038.462 C 2624.731 3033.462 2603.731 3010.462 2550.731 2967.462 C 2507.731 2932.462 2454.731 2887.462 2432.731 2866.462 L 2392.731 2829.462 L 2262.731 2847.462 C 2191.731 2857.462 2047.731 2872.462 1942.731 2881.462 C 1838.731 2890.462 1748.731 2902.462 1742.731 2908.462 C 1737.731 2913.462 1731.731 2952.462 1728.731 2994.462 C 1725.731 3069.462 1725.731 3072.462 1753.731 3094.462 C 1782.731 3117.462 1824.731 3117.462 1839.731 3093.462 Z M 2022.731 3087.462 C 2072.731 3082.462 2121.731 3077.462 2132.731 3077.462 C 2152.731 3076.462 2152.731 3076.462 2132.731 3065.462 C 2107.731 3050.462 1977.731 3051.462 1921.731 3066.462 C 1898.731 3072.462 1873.731 3084.462 1866.731 3093.462 C 1854.731 3108.462 1856.731 3109.462 1892.731 3103.462 C 1914.731 3100.462 1973.731 3092.462 2022.731 3087.462 Z M 1996.731 3040.462 C 2034.731 3037.462 2081.731 3040.462 2107.731 3047.462 C 2132.731 3054.462 2164.731 3060.462 2179.731 3060.462 C 2211.731 3060.462 2280.731 3016.462 2268.731 3004.462 C 2253.731 2989.462 2104.731 2968.462 2017.731 2967.462 C 1934.731 2967.462 1785.731 2995.462 1766.731 3014.462 C 1761.731 3019.462 1778.731 3033.462 1808.731 3049.462 C 1856.731 3074.462 1861.731 3074.462 1894.731 3060.462 C 1914.731 3052.462 1959.731 3043.462 1996.731 3040.462 Z M 2637.731 2945.462 L 2636.731 2872.462 L 2523.731 2753.462 L 2410.731 2633.462 L 2404.731 2718.462 C 2398.731 2790.462 2400.731 2805.462 2415.731 2827.462 C 2436.731 2855.462 2618.731 3016.462 2630.731 3017.462 C 2634.731 3017.462 2637.731 2984.462 2637.731 2945.462 Z M 1577.731 2632.462 C 1588.731 2619.462 1584.731 2617.462 1551.731 2617.462 C 1515.731 2618.462 1513.731 2619.462 1531.731 2632.462 C 1556.731 2651.462 1562.731 2651.462 1577.731 2632.462 Z M 1527.731 2592.462 C 1514.731 2576.462 1487.731 2572.462 1487.731 2585.462 C 1487.731 2599.462 1499.731 2607.462 1520.731 2607.462 C 1536.731 2607.462 1537.731 2604.462 1527.731 2592.462 Z M 1586.731 2581.462 C 1580.731 2573.462 1563.731 2567.462 1549.731 2567.462 C 1525.731 2567.462 1525.731 2568.462 1541.731 2586.462 C 1562.731 2609.462 1605.731 2604.462 1586.731 2581.462 Z M 1611.731 2546.462 C 1592.731 2527.462 1590.731 2527.462 1592.731 2544.462 C 1594.731 2574.462 1608.731 2590.462 1620.731 2578.462 C 1628.731 2570.462 1626.731 2561.462 1611.731 2546.462 Z M 1487.731 2546.462 C 1487.731 2541.462 1480.731 2537.462 1472.731 2537.462 C 1457.731 2537.462 1452.731 2549.462 1463.731 2560.462 C 1471.731 2568.462 1487.731 2559.462 1487.731 2546.462 Z M 1547.731 2542.462 C 1534.731 2526.462 1497.731 2521.462 1497.731 2535.462 C 1497.731 2550.462 1510.731 2557.462 1535.731 2557.462 C 1556.731 2557.462 1557.731 2555.462 1547.731 2542.462 Z M 1681.731 2489.462 C 1673.731 2478.462 1659.731 2473.462 1640.731 2475.462 C 1621.731 2477.462 1605.731 2471.462 1593.731 2458.462 C 1561.731 2422.462 1576.731 2405.462 1657.731 2386.462 C 1756.731 2362.462 1774.731 2363.462 1802.731 2391.462 C 1828.731 2418.462 1837.731 2415.462 1837.731 2381.462 C 1837.731 2355.462 1829.731 2358.462 1984.731 2327.462 C 2107.731 2303.462 2100.731 2303.462 2092.731 2327.462 C 2089.731 2338.462 2091.731 2355.462 2097.731 2364.462 C 2106.731 2379.462 2107.731 2377.462 2102.731 2352.462 C 2095.731 2318.462 2097.731 2320.462 2151.731 2385.462 C 2174.731 2413.462 2187.731 2439.462 2187.731 2458.462 C 2187.731 2491.462 2175.731 2499.462 2085.731 2517.462 C 2053.731 2523.462 2027.731 2532.462 2027.731 2537.462 C 2027.731 2541.462 2051.731 2539.462 2080.731 2532.462 C 2108.731 2524.462 2171.731 2511.462 2220.731 2501.462 C 2268.731 2492.462 2307.731 2481.462 2307.731 2478.462 C 2307.731 2470.462 2244.731 2375.462 2162.731 2260.462 C 2159.731 2254.462 1900.731 2306.462 1572.731 2378.462 C 1523.731 2389.462 1457.731 2402.462 1427.731 2408.462 C 1397.731 2413.462 1363.731 2421.462 1353.731 2424.462 C 1333.731 2429.462 1333.731 2430.462 1353.731 2444.462 C 1368.731 2455.462 1390.731 2457.462 1452.731 2452.462 L 1532.731 2445.462 L 1587.731 2501.462 L 1641.731 2557.462 L 1667.731 2532.462 C 1687.731 2512.462 1690.731 2503.462 1681.731 2489.462 Z M 1572.731 2509.462 C 1567.731 2495.462 1565.731 2495.462 1557.731 2507.462 C 1552.731 2516.462 1553.731 2527.462 1560.731 2535.462 C 1574.731 2552.462 1582.731 2535.462 1572.731 2509.462 Z M 1500.731 2517.462 C 1514.731 2517.462 1516.731 2512.462 1511.731 2490.462 C 1502.731 2455.462 1505.731 2457.462 1479.731 2464.462 C 1461.731 2468.462 1458.731 2474.462 1464.731 2495.462 C 1468.731 2512.462 1466.731 2518.462 1458.731 2513.462 C 1452.731 2509.462 1447.731 2497.462 1447.731 2486.462 C 1447.731 2466.462 1413.731 2459.462 1402.731 2477.462 C 1392.731 2493.462 1439.731 2528.462 1462.731 2522.462 C 1473.731 2519.462 1490.731 2517.462 1500.731 2517.462 Z M 1534.731 2475.462 C 1531.731 2468.462 1529.731 2473.462 1529.731 2487.462 C 1529.731 2501.462 1531.731 2506.462 1534.731 2500.462 C 1536.731 2493.462 1536.731 2481.462 1534.731 2475.462 Z M 2026.731 2492.462 C 2017.731 2483.462 2003.731 2479.462 1994.731 2483.462 C 1970.731 2492.462 1983.731 2507.462 2015.731 2507.462 C 2039.731 2507.462 2040.731 2505.462 2026.731 2492.462 Z M 2087.731 2477.462 C 2078.731 2460.462 2037.731 2459.462 2037.731 2476.462 C 2037.731 2491.462 2060.731 2504.462 2078.731 2500.462 C 2092.731 2496.462 2094.731 2491.462 2087.731 2477.462 Z M 2147.731 2480.462 C 2146.731 2458.462 2128.731 2445.462 2108.731 2452.462 C 2090.731 2457.462 2088.731 2461.462 2098.731 2473.462 C 2110.731 2488.462 2147.731 2493.462 2147.731 2480.462 Z M 1724.731 2461.462 C 1721.731 2458.462 1712.731 2457.462 1705.731 2460.462 C 1697.731 2463.462 1700.731 2466.462 1711.731 2466.462 C 1722.731 2467.462 1728.731 2464.462 1724.731 2461.462 Z M 2001.731 2452.462 C 1995.731 2436.462 1967.731 2431.462 1967.731 2445.462 C 1967.731 2458.462 1978.731 2467.462 1993.731 2467.462 C 2001.731 2467.462 2004.731 2461.462 2001.731 2452.462 Z M 2172.731 2436.462 C 2166.731 2420.462 2163.731 2418.462 2156.731 2428.462 C 2152.731 2436.462 2153.731 2447.462 2159.731 2454.462 C 2174.731 2472.462 2180.731 2463.462 2172.731 2436.462 Z M 1644.731 2451.462 C 1641.731 2448.462 1632.731 2447.462 1625.731 2450.462 C 1617.731 2453.462 1620.731 2456.462 1631.731 2456.462 C 1642.731 2457.462 1648.731 2454.462 1644.731 2451.462 Z M 2051.731 2451.462 C 2075.731 2442.462 2052.731 2418.462 2027.731 2424.462 C 2006.731 2429.462 2002.731 2439.462 2014.731 2450.462 C 2022.731 2459.462 2031.731 2459.462 2051.731 2451.462 Z M 1708.731 2429.462 C 1701.731 2427.462 1690.731 2430.462 1685.731 2435.462 C 1677.731 2443.462 1681.731 2444.462 1698.731 2440.462 C 1711.731 2436.462 1716.731 2432.462 1708.731 2429.462 Z M 2106.731 2438.462 C 2124.731 2427.462 2111.731 2407.462 2086.731 2407.462 C 2065.731 2407.462 2064.731 2408.462 2073.731 2431.462 C 2080.731 2449.462 2086.731 2450.462 2106.731 2438.462 Z M 1637.731 2427.462 C 1637.731 2422.462 1628.731 2417.462 1616.731 2417.462 C 1605.731 2417.462 1599.731 2422.462 1602.731 2427.462 C 1605.731 2433.462 1615.731 2437.462 1623.731 2437.462 C 1631.731 2437.462 1637.731 2433.462 1637.731 2427.462 Z M 2470.731 2420.462 C 2457.731 2412.462 2447.731 2398.462 2447.731 2391.462 C 2447.731 2382.462 2435.731 2377.462 2412.731 2377.462 C 2393.731 2377.462 2377.731 2381.462 2377.731 2386.462 C 2377.731 2405.462 2431.731 2437.462 2461.731 2436.462 L 2492.731 2436.462 L 2470.731 2420.462 Z M 1706.731 2411.462 C 1708.731 2409.462 1708.731 2404.462 1704.731 2401.462 C 1696.731 2392.462 1657.731 2407.462 1657.731 2418.462 C 1657.731 2427.462 1694.731 2421.462 1706.731 2411.462 Z M 1774.731 2420.462 C 1770.731 2417.462 1764.731 2417.462 1760.731 2420.462 C 1757.731 2424.462 1760.731 2427.462 1767.731 2427.462 C 1774.731 2427.462 1777.731 2424.462 1774.731 2420.462 Z M 1967.731 2407.462 C 1955.731 2385.462 1949.731 2383.462 1928.731 2396.462 C 1917.731 2403.462 1918.731 2407.462 1933.731 2416.462 C 1965.731 2434.462 1979.731 2430.462 1967.731 2407.462 Z M 2133.731 2379.462 C 2121.731 2368.462 2115.731 2386.462 2123.731 2409.462 L 2131.731 2432.462 L 2135.731 2409.462 C 2137.731 2396.462 2136.731 2383.462 2133.731 2379.462 Z M 1512.731 2373.462 C 1600.731 2354.462 1724.731 2327.462 1787.731 2314.462 C 1850.731 2300.462 1957.731 2278.462 2025.731 2266.462 C 2142.731 2245.462 2147.731 2243.462 2147.731 2220.462 C 2147.731 2201.462 2143.731 2197.462 2130.731 2201.462 C 2077.731 2217.462 1817.731 2278.462 1727.731 2296.462 C 1669.731 2307.462 1582.731 2326.462 1532.731 2337.462 C 1483.731 2349.462 1407.731 2365.462 1363.731 2374.462 C 1294.731 2389.462 1287.731 2392.462 1303.731 2404.462 C 1313.731 2411.462 1328.731 2415.462 1336.731 2412.462 C 1345.731 2410.462 1424.731 2392.462 1512.731 2373.462 Z M 1797.731 2407.462 C 1797.731 2402.462 1792.731 2397.462 1786.731 2397.462 C 1781.731 2397.462 1779.731 2402.462 1782.731 2407.462 C 1785.731 2413.462 1790.731 2417.462 1793.731 2417.462 C 1795.731 2417.462 1797.731 2413.462 1797.731 2407.462 Z M 2028.731 2407.462 C 2032.731 2407.462 2034.731 2400.462 2031.731 2392.462 C 2025.731 2377.462 1996.731 2371.462 1984.731 2383.462 C 1973.731 2394.462 1989.731 2418.462 2004.731 2413.462 C 2012.731 2410.462 2023.731 2407.462 2028.731 2407.462 Z M 2550.731 2389.462 C 2561.731 2379.462 2567.731 2359.462 2567.731 2328.462 L 2567.731 2282.462 L 2537.731 2319.462 C 2520.731 2339.462 2498.731 2358.462 2488.731 2362.462 C 2470.731 2367.462 2470.731 2369.462 2490.731 2392.462 C 2512.731 2416.462 2519.731 2415.462 2550.731 2389.462 Z M 1767.731 2391.462 C 1767.731 2389.462 1760.731 2387.462 1752.731 2387.462 C 1744.731 2387.462 1737.731 2391.462 1737.731 2397.462 C 1737.731 2402.462 1744.731 2404.462 1752.731 2401.462 C 1760.731 2397.462 1767.731 2393.462 1767.731 2391.462 Z M 1894.731 2400.462 C 1890.731 2397.462 1884.731 2397.462 1880.731 2400.462 C 1877.731 2404.462 1880.731 2407.462 1887.731 2407.462 C 1894.731 2407.462 1897.731 2404.462 1894.731 2400.462 Z M 2085.731 2385.462 C 2080.731 2370.462 2037.731 2361.462 2037.731 2375.462 C 2037.731 2389.462 2049.731 2397.462 2070.731 2397.462 C 2080.731 2397.462 2087.731 2392.462 2085.731 2385.462 Z M 1887.731 2371.462 C 1887.731 2362.462 1882.731 2357.462 1875.731 2359.462 C 1857.731 2365.462 1854.731 2387.462 1871.731 2387.462 C 1880.731 2387.462 1887.731 2380.462 1887.731 2371.462 Z M 1277.731 2373.462 C 1277.731 2371.462 1270.731 2366.462 1261.731 2363.462 C 1253.731 2360.462 1249.731 2361.462 1252.731 2367.462 C 1258.731 2377.462 1277.731 2381.462 1277.731 2373.462 Z M 1947.731 2362.462 C 1947.731 2345.462 1945.731 2344.462 1923.731 2353.462 C 1900.731 2362.462 1903.731 2377.462 1927.731 2377.462 C 1938.731 2377.462 1947.731 2370.462 1947.731 2362.462 Z M 2007.731 2351.462 C 2007.731 2340.462 2002.731 2337.462 1991.731 2341.462 C 1982.731 2344.462 1971.731 2347.462 1966.731 2347.462 C 1961.731 2347.462 1957.731 2352.462 1957.731 2357.462 C 1957.731 2363.462 1968.731 2367.462 1982.731 2367.462 C 1998.731 2367.462 2007.731 2361.462 2007.731 2351.462 Z M 2495.731 2340.462 C 2510.731 2329.462 2528.731 2307.462 2536.731 2292.462 C 2549.731 2266.462 2548.731 2262.462 2528.731 2246.462 C 2479.731 2206.462 2403.731 2210.462 2360.731 2253.462 C 2340.731 2273.462 2336.731 2285.462 2341.731 2309.462 C 2351.731 2360.462 2365.731 2370.462 2420.731 2364.462 C 2447.731 2362.462 2481.731 2351.462 2495.731 2340.462 Z M 2072.731 2342.462 C 2072.731 2337.462 2062.731 2331.462 2050.731 2329.462 C 2034.731 2327.462 2027.731 2331.462 2027.731 2342.462 C 2027.731 2353.462 2034.731 2357.462 2050.731 2355.462 C 2062.731 2353.462 2072.731 2348.462 2072.731 2342.462 Z"/>
        <path d="M 2091.731 3672.462 C 2077.731 3658.462 2061.731 3647.462 2056.731 3647.462 C 2050.731 3647.462 2047.731 3637.462 2049.731 3625.462 C 2052.731 3603.462 2055.731 3602.462 2151.731 3604.462 C 2205.731 3605.462 2252.731 3609.462 2255.731 3612.462 C 2263.731 3620.462 2225.731 3657.462 2208.731 3657.462 C 2199.731 3657.462 2186.731 3666.462 2179.731 3677.462 C 2162.731 3705.462 2121.731 3702.462 2091.731 3672.462 Z M 2172.731 3660.462 C 2178.731 3645.462 2188.731 3639.462 2198.731 3642.462 C 2207.731 3645.462 2220.731 3641.462 2227.731 3632.462 C 2238.731 3619.462 2230.731 3617.462 2158.731 3617.462 C 2114.731 3617.462 2074.731 3617.462 2070.731 3616.462 C 2066.731 3616.462 2061.731 3620.462 2059.731 3626.462 C 2057.731 3632.462 2061.731 3637.462 2067.731 3637.462 C 2074.731 3637.462 2088.731 3648.462 2099.731 3663.462 C 2123.731 3693.462 2158.731 3692.462 2172.731 3660.462 Z"/>
        <path d="M 2217.731 3567.462 C 2209.731 3562.462 2194.731 3556.462 2183.731 3553.462 C 2169.731 3548.462 2167.731 3544.462 2176.731 3533.462 C 2184.731 3524.462 2203.731 3521.462 2240.731 3525.462 C 2268.731 3527.462 2294.731 3531.462 2296.731 3533.462 C 2298.731 3535.462 2292.731 3546.462 2282.731 3557.462 C 2263.731 3578.462 2242.731 3581.462 2217.731 3567.462 Z M 2263.731 3552.462 C 2277.731 3539.462 2273.731 3537.462 2230.731 3538.462 C 2204.731 3539.462 2191.731 3541.462 2202.731 3544.462 C 2213.731 3547.462 2226.731 3553.462 2232.731 3558.462 C 2244.731 3570.462 2246.731 3570.462 2263.731 3552.462 Z"/>
        <path d="M 2177.731 3182.462 C 2166.731 3169.462 2166.731 3163.462 2181.731 3149.462 C 2201.731 3129.462 2232.731 3143.462 2232.731 3173.462 C 2232.731 3197.462 2195.731 3203.462 2177.731 3182.462 Z M 2220.731 3161.462 C 2213.731 3143.462 2187.731 3143.462 2187.731 3160.462 C 2187.731 3179.462 2197.731 3187.462 2212.731 3180.462 C 2220.731 3178.462 2223.731 3169.462 2220.731 3161.462 Z"/>
        <path d="M 1543.731 3682.462 C 1523.731 3662.462 1522.731 3623.462 1541.731 3608.462 C 1549.731 3601.462 1568.731 3597.462 1584.731 3599.462 C 1617.731 3603.462 1638.731 3647.462 1621.731 3675.462 C 1606.731 3698.462 1563.731 3702.462 1543.731 3682.462 Z"/>
        <path d="M 1607.731 3483.462 C 1607.731 3468.462 1644.731 3437.462 1662.731 3437.462 C 1667.731 3437.462 1679.731 3441.462 1687.731 3447.462 C 1699.731 3454.462 1699.731 3459.462 1683.731 3476.462 C 1661.731 3500.462 1607.731 3505.462 1607.731 3483.462 Z M 1671.731 3468.462 C 1675.731 3463.462 1668.731 3461.462 1657.731 3464.462 C 1634.731 3470.462 1631.731 3477.462 1651.731 3477.462 C 1659.731 3477.462 1668.731 3473.462 1671.731 3468.462 Z"/>
        <path d="M 1208.731 3446.462 C 1177.731 3427.462 1176.731 3424.462 1190.731 3410.462 C 1204.731 3396.462 1209.731 3396.462 1239.731 3414.462 C 1273.731 3434.462 1283.731 3460.462 1257.731 3464.462 C 1249.731 3466.462 1227.731 3458.462 1208.731 3446.462 Z M 1243.731 3432.462 C 1217.731 3413.462 1201.731 3413.462 1217.731 3432.462 C 1224.731 3440.462 1237.731 3447.462 1246.731 3447.462 C 1259.731 3446.462 1259.731 3444.462 1243.731 3432.462 Z"/>
        <path d="M 1386.731 3448.462 C 1344.731 3435.462 1317.731 3417.462 1317.731 3402.462 C 1317.731 3382.462 1349.731 3367.462 1392.731 3367.462 C 1425.731 3367.462 1427.731 3366.462 1416.731 3346.462 C 1410.731 3335.462 1386.731 3316.462 1362.731 3306.462 C 1320.731 3288.462 1316.731 3287.462 1277.731 3303.462 C 1242.731 3317.462 1234.731 3318.462 1227.731 3306.462 C 1222.731 3299.462 1221.731 3290.462 1224.731 3287.462 C 1227.731 3284.462 1232.731 3288.462 1234.731 3294.462 C 1238.731 3304.462 1246.731 3303.462 1269.731 3291.462 C 1287.731 3281.462 1313.731 3277.462 1331.731 3280.462 C 1353.731 3283.462 1370.731 3279.462 1386.731 3266.462 C 1415.731 3242.462 1475.731 3241.462 1507.731 3265.462 C 1524.731 3276.462 1551.731 3282.462 1590.731 3282.462 C 1647.731 3282.462 1650.731 3283.462 1685.731 3325.462 C 1712.731 3356.462 1727.731 3366.462 1740.731 3362.462 C 1750.731 3358.462 1757.731 3360.462 1757.731 3366.462 C 1757.731 3372.462 1745.731 3377.462 1730.731 3377.462 C 1709.731 3376.462 1695.731 3366.462 1675.731 3337.462 C 1649.731 3299.462 1644.731 3297.462 1597.731 3297.462 C 1556.731 3297.462 1542.731 3302.462 1512.731 3328.462 C 1473.731 3363.462 1468.731 3377.462 1496.731 3377.462 C 1521.731 3377.462 1562.731 3411.462 1553.731 3425.462 C 1537.731 3451.462 1440.731 3464.462 1386.731 3448.462 Z"/>
        <path d="M 783.731 2915.462 C 748.731 2866.462 776.731 2787.462 827.731 2787.462 C 858.731 2787.462 897.731 2831.462 897.731 2865.462 C 897.731 2925.462 815.731 2961.462 783.731 2915.462 Z"/>
        <path d="M 593.731 2857.462 C 495.731 2827.462 453.731 2689.462 523.731 2629.462 C 545.731 2609.462 559.731 2606.462 593.731 2610.462 C 657.731 2617.462 702.731 2650.462 732.731 2710.462 C 751.731 2750.462 756.731 2771.462 751.731 2796.462 C 739.731 2854.462 671.731 2880.462 593.731 2857.462 Z"/>
        <path d="M 778.731 2733.462 C 771.731 2725.462 767.731 2706.462 769.731 2690.462 C 771.731 2668.462 778.731 2661.462 798.731 2659.462 C 830.731 2655.462 849.731 2677.462 845.731 2714.462 C 843.731 2736.462 836.731 2743.462 816.731 2745.462 C 802.731 2747.462 785.731 2741.462 778.731 2733.462 Z"/>
        <path d="M 1847.731 2827.462 C 1866.731 2823.462 1912.731 2816.462 1950.731 2812.462 C 2016.731 2805.462 2017.731 2805.462 2017.731 2776.462 C 2017.731 2759.462 2021.731 2748.462 2025.731 2751.462 C 2029.731 2753.462 2033.731 2768.462 2032.731 2784.462 C 2032.731 2811.462 2030.731 2812.462 1952.731 2824.462 C 1908.731 2830.462 1859.731 2835.462 1842.731 2835.462 C 1813.731 2835.462 1813.731 2835.462 1847.731 2827.462 Z"/>
        <path d="M 2077.731 2772.462 C 2077.731 2759.462 2095.731 2757.462 2188.731 2757.462 C 2272.731 2757.462 2298.731 2760.462 2295.731 2770.462 C 2292.731 2778.462 2258.731 2783.462 2184.731 2785.462 C 2093.731 2787.462 2077.731 2785.462 2077.731 2772.462 Z"/>
        <path d="M 2307.731 2734.462 C 2293.731 2727.462 2282.731 2715.462 2282.731 2708.462 C 2282.731 2689.462 2311.731 2673.462 2331.731 2680.462 C 2350.731 2687.462 2353.731 2727.462 2335.731 2727.462 C 2326.731 2727.462 2327.731 2731.462 2337.731 2737.462 C 2359.731 2751.462 2336.731 2749.462 2307.731 2734.462 Z M 2333.731 2716.462 C 2343.731 2699.462 2320.731 2680.462 2306.731 2694.462 C 2294.731 2706.462 2302.731 2727.462 2317.731 2727.462 C 2322.731 2727.462 2329.731 2722.462 2333.731 2716.462 Z"/>
        <path d="M 567.731 1257.462 C 567.731 1250.462 570.731 1247.462 574.731 1250.462 C 577.731 1254.462 577.731 1260.462 574.731 1264.462 C 570.731 1267.462 567.731 1264.462 567.731 1257.462 Z"/>
    </g>
</svg>